<?xml version="1.0" standalone="no"?><!DOCTYPE svg PUBLIC "-//W3C//DTD SVG 1.1//EN" "http://www.w3.org/Graphics/SVG/1.1/DTD/svg11.dtd"><svg t="1574152826359" class="icon" viewBox="0 0 1024 1024" version="1.1" xmlns="http://www.w3.org/2000/svg" p-id="1711" xmlns:xlink="http://www.w3.org/1999/xlink" width="200" height="200"><defs><style type="text/css"></style></defs><path d="M574.745097 449.254903 574.745097 72.839005C574.745097 37.937623 546.65316 10.039216 512 10.039216 477.105242 10.039216 449.254903 38.15564 449.254903 72.839005L449.254903 449.254903 72.839005 449.254903C37.937623 449.254903 10.039216 477.34684 10.039216 512 10.039216 546.894758 38.15564 574.745097 72.839005 574.745097L449.254903 574.745097 449.254903 951.160995C449.254903 986.062378 477.34684 1013.960785 512 1013.960785 546.894758 1013.960785 574.745097 985.84436 574.745097 951.160995L574.745097 574.745097 951.160995 574.745097C986.062378 574.745097 1013.960785 546.65316 1013.960785 512 1013.960785 477.105242 985.84436 449.254903 951.160995 449.254903L574.745097 449.254903Z" p-id="1712" fill="#cdcdcd"></path></svg>