<?xml version="1.0" standalone="no"?><!DOCTYPE svg PUBLIC "-//W3C//DTD SVG 1.1//EN" "http://www.w3.org/Graphics/SVG/1.1/DTD/svg11.dtd"><svg t="1569747464419" class="icon" viewBox="0 0 1024 1024" version="1.1" xmlns="http://www.w3.org/2000/svg" p-id="10322" xmlns:xlink="http://www.w3.org/1999/xlink" width="200" height="200"><defs><style type="text/css"></style></defs><path d="M511.984001 725.303112c117.627099 0 213.324445-103.547686 213.324444-230.817049V230.817049C725.308445 103.505021 629.6111 0 511.984001 0S298.659556 103.547686 298.659556 230.817049v263.669014C298.659556 621.798092 394.356902 725.303112 511.984001 725.303112z" fill="#99aac1" p-id="10323"></path><path d="M895.968001 469.313779h-63.997333c0 179.704512-143.524686 325.959752-319.986667 325.959751S191.997333 649.018291 191.997333 469.313779H128c0 204.706137 155.214866 372.89113 351.985334 389.487771v98.939877H376.864297a30.164076 30.164076 0 0 0-29.694762 30.292072v5.67443a30.121412 30.121412 0 0 0 29.694762 30.249406h270.196742a30.164076 30.164076 0 0 0 29.694763-30.249406v-5.717095c0-14.932711-10.751552-27.305529-24.745636-29.737428a29.865422 29.865422 0 0 0-4.949127-0.511979H543.982667v-98.982542C740.753135 842.162243 895.968001 674.062581 895.968001 469.313779z" fill="#99aac1" p-id="10324"></path></svg>