<?xml version="1.0" standalone="no"?><!DOCTYPE svg PUBLIC "-//W3C//DTD SVG 1.1//EN" "http://www.w3.org/Graphics/SVG/1.1/DTD/svg11.dtd"><svg t="1569729532682" class="icon" viewBox="0 0 1024 1024" version="1.1" xmlns="http://www.w3.org/2000/svg" p-id="5810" xmlns:xlink="http://www.w3.org/1999/xlink" width="200" height="200"><defs><style type="text/css"></style></defs><path d="M768 640.170667v42.666666c0 34.858667-6.784 85.376-42.666667 85.376H383.957333l350.464-499.797333s30.293333 11.562667 30.293334 65.962667L768 384.170667l151.850667-91.093334c34.602667-20.778667 61.482667 5.76 61.482666 5.76v426.837334c0 56.661333-64.042667 3.584-65.536 3.157333C852.778667 691.669333 768 640.170667 768 640.170667zM59.776 938.496L170.666667 768.213333H85.333333c-35.84 0-42.666667-50.517333-42.666666-85.376v-341.333333c0-34.858667 6.784-85.376 42.666666-85.376h469.333334l128-170.624 108.202666 0.128L177.109333 938.496h-117.333333z" p-id="5811" fill="#99aac1"></path></svg>