<?xml version="1.0" standalone="no"?><!DOCTYPE svg PUBLIC "-//W3C//DTD SVG 1.1//EN" "http://www.w3.org/Graphics/SVG/1.1/DTD/svg11.dtd"><svg t="1569747566671" class="icon" viewBox="0 0 1024 1024" version="1.1" xmlns="http://www.w3.org/2000/svg" p-id="1217" xmlns:xlink="http://www.w3.org/1999/xlink" width="200" height="200"><defs><style type="text/css"></style></defs><path d="M864.112281 542.540351c-30.540351 156.294737-158.091228 273.066667-316.182456 289.235088V952.140351h111.382456c17.964912 0 32.336842 14.37193 32.336842 32.336842v7.185965c0 17.964912-14.37193 32.336842-32.336842 32.336842H364.687719c-17.964912 0-32.336842-14.37193-32.336842-32.336842v-7.185965c0-17.964912 14.37193-32.336842 32.336842-32.336842H476.070175v-120.364912c-21.557895-1.796491-44.912281-7.185965-66.470175-12.575439l43.115789-70.063158c19.761404 3.592982 39.522807 7.185965 59.284211 7.185965 138.329825 0 256.898246-98.807018 282.049123-233.54386h5.389473c0-19.761404 16.168421-35.929825 35.929825-35.929824s35.929825 16.168421 35.929825 35.929824c0 5.389474-1.796491 12.575439-7.185965 19.761404z" fill="#99aac1" p-id="1218"></path><path d="M512 682.666667c-7.185965 0-12.575439 0-19.761404-1.796492L709.614035 326.961404V485.052632c0 109.585965-88.02807 197.614035-197.614035 197.614035z" fill="#99aac1" p-id="1219"></path><path d="M242.526316 986.273684c-10.778947 16.168421-34.133333 19.761404-50.301755 8.982456-14.37193-10.778947-19.761404-28.74386-12.575438-44.91228L738.357895 23.354386c10.778947-16.168421 34.133333-19.761404 50.301754-8.982456 14.37193 10.778947 19.761404 28.74386 12.575439 44.912281L242.526316 986.273684z" fill="#99aac1" p-id="1220"></path><path d="M314.385965 485.052632V197.614035C314.385965 88.02807 402.414035 0 512 0c50.301754 0 98.807018 19.761404 136.533333 53.894737L334.147368 569.487719C321.57193 542.540351 314.385965 513.796491 314.385965 485.052632zM159.887719 542.540351c-5.389474-7.185965-7.185965-14.37193-7.185965-21.557895 0-19.761404 16.168421-35.929825 35.929825-35.929824s35.929825 16.168421 35.929825 35.929824h5.389473c8.982456 44.912281 28.74386 88.02807 57.487719 123.957895l-41.319298 68.266667c-44.912281-48.505263-73.65614-107.789474-86.231579-170.666667z" fill="#99aac1" p-id="1221"></path></svg>