<?xml version="1.0" standalone="no"?><!DOCTYPE svg PUBLIC "-//W3C//DTD SVG 1.1//EN" "http://www.w3.org/Graphics/SVG/1.1/DTD/svg11.dtd"><svg t="1575941452194" class="icon" viewBox="0 0 1024 1024" version="1.1" xmlns="http://www.w3.org/2000/svg" p-id="2365" xmlns:xlink="http://www.w3.org/1999/xlink" width="200" height="200"><defs><style type="text/css"></style></defs><path d="M621.7 402.3h329.1c40.4 0 73.1 32.6 73.1 73.1v475.4c0 40.4-32.6 73.1-73.1 73.1H475.4c-40.4 0-73.1-32.6-73.1-73.1V621.7H73.1C32.7 621.7 0 589.1 0 548.6V73.1C0 32.7 32.6 0 73.1 0h475.4c40.4 0 73.1 32.6 73.1 73.1v329.2z m0 73.1v73.1c0 40.4-32.6 73.1-73.1 73.1h-73.1v292.6c0 20.1 16.3 36.6 36.6 36.6h402.3c20.1 0 36.6-16.4 36.6-36.6V512c0-20.1-16.3-36.6-36.6-36.6H621.7zM73.1 109.7V512c0 20.1 16.3 36.6 36.6 36.6H512c20.1 0 36.6-16.3 36.6-36.6V109.7c0-9.7-3.9-19-10.7-25.9S521.7 73.1 512 73.1H109.7c-9.7 0-19 3.9-25.9 10.7S73.1 100 73.1 109.7z m73.2 279.2V205h128.9v-77h53.4c7.3 1 11 2.1 11 3.1-0.1 1.7-0.7 3.3-1.6 4.7-3.1 8.4-4.7 18.3-4.7 29.9V205H470v179.1h-58.1v-23.6h-78.6v135.1h-56.6v-135h-77v28.3h-53.4zM199.7 249v69.1h77V249h-77z m212.2 69.1V249h-78.6v69.1h78.6z m233 557.8h-59.7l105.3-290.7h73.9l102.1 290.7h-62.9l-22-61.3H666.9l-22 61.3z m37.7-110h83.3l-39.3-124.1H725l-42.4 124.1z m268.3-473.3h-73.1c0-80.9-65.4-146.3-146.3-146.3V73.1c121.1 0 219.4 98.3 219.4 219.5zM73.1 731.4h73.1c0 80.9 65.4 146.3 146.3 146.3v73.1c-121.1 0.1-219.4-98.2-219.4-219.4z" p-id="2366" fill="#00FFFF"></path></svg>